<?xml version="1.0" encoding="UTF-8" standalone="no"?>
<svg width="109px" height="42px" viewBox="0 0 109 42" version="1.1" xmlns="http://www.w3.org/2000/svg" xmlns:xlink="http://www.w3.org/1999/xlink">
    <!-- Generator: sketchtool 3.8.3 (29802) - http://www.bohemiancoding.com/sketch -->
    <title>B432C152-9297-4B74-8A53-BA2485FD6917</title>
    <desc>Created with sketchtool.</desc>
    <defs>
        <polygon id="path-1" points="63.28063 0.19565 0.19488 0.19565 0.19488 24.33256 63.28063 24.33256"></polygon>
    </defs>
    <g id="IWC-Responsive-Site-Test" stroke="none" stroke-width="1" fill="none" fill-rule="evenodd">
        <g id="Product-Page-Desktop-1024" transform="translate(-457.000000, -19.000000)">
            <g id="Menu-Desktop-1024">
                <g id="Menu-Desktop">
                    <g id="IWC-Logo" transform="translate(457.000000, 19.000000)">
                        <g id="Group-3" transform="translate(22.750000, 0.154350)">
                            <mask id="mask-2" fill="white">
                                <use xlink:href="#path-1"></use>
                            </mask>
                            <g id="Clip-2"></g>
                            <path d="M0.19488,23.83171 L0.19488,23.22901 C1.99983,23.12926 2.83563,22.72851 2.83563,21.22421 L2.83563,3.03751 C2.83563,1.53286 1.99983,1.09851 0.36218,1.03131 L0.36218,0.42966 L8.78598,0.42966 L8.78598,1.03131 C7.18193,1.09851 6.34613,1.53286 6.34613,3.03751 L6.34613,21.22421 C6.34613,22.72851 7.18193,23.12926 8.98758,23.22901 L8.98758,23.83171 L0.19488,23.83171 Z M40.54638,3.80611 L33.09243,23.99831 L32.49183,23.99831 L27.20683,8.82021 L20.88828,23.99831 L20.28628,23.99831 L13.03218,3.00356 C12.59713,1.76666 12.06268,1.13176 10.35783,1.03131 L10.35783,0.42966 L19.04973,0.42966 L19.04973,1.03131 C17.34488,1.13176 16.87693,1.70016 16.87693,2.46876 C16.87693,2.87021 17.11073,3.60591 17.34488,4.24011 L21.89103,17.44596 L26.40533,6.44721 L25.13343,2.70326 C24.73303,1.56611 24.09813,1.13176 22.59348,1.03131 L22.59348,0.42966 L31.25213,0.42966 L31.25213,1.03131 C29.24593,1.06491 29.01248,1.73376 29.01248,2.26856 C29.01248,2.63571 29.14618,3.20446 29.37998,3.83971 L33.92823,16.97801 L38.24023,5.24321 C38.80898,3.70601 38.97628,2.76941 38.97628,2.40226 C38.97628,1.49926 38.27383,1.13176 36.60188,1.03131 L36.60188,0.42966 L44.05758,0.42966 L44.05758,1.03131 C42.28518,1.13176 41.35033,1.66621 40.54638,3.80611 L40.54638,3.80611 Z M54.42003,24.33256 C47.16628,24.33256 42.98728,19.21801 42.98728,12.13016 C42.98728,7.85141 45.56223,0.19551 54.52153,0.19551 C58.56683,0.19551 59.63643,1.76666 61.03993,1.76666 C61.57473,1.76666 61.94293,1.49926 62.04233,0.49616 L62.64538,0.49616 L62.91138,7.61761 L62.21068,7.61761 C61.30733,3.53871 58.33268,1.53286 54.82253,1.53286 C52.98328,1.53286 51.27878,2.16776 49.94038,3.53871 C48.23693,5.27681 47.16628,8.15206 47.16628,12.13016 C47.16628,18.31466 49.90783,22.72851 55.18933,22.72851 C58.73343,22.72851 60.93983,21.32396 62.67828,18.58276 L63.28063,18.91701 C61.50788,22.36031 58.56683,24.33256 54.42003,24.33256 L54.42003,24.33256 Z" id="Fill-1" fill="#020302" mask="url(#mask-2)"></path>
                        </g>
                        <path d="M102.73655,41.6829 L103.96085,41.6829 L103.96085,36.6457 L107.86545,41.6829 L108.90775,41.6829 L108.90775,34.60135 L107.6831,34.60135 L107.6831,39.4982 L103.89015,34.60135 L102.73655,34.60135 L102.73655,41.6829 Z M93.59245,41.6829 L98.89215,41.6829 L98.89215,40.5706 L94.83635,40.5706 L94.83635,38.66905 L98.38675,38.66905 L98.38675,37.55535 L94.83635,37.55535 L94.83635,35.7147 L98.84175,35.7147 L98.84175,34.60135 L93.59245,34.60135 L93.59245,41.6829 Z M87.49265,41.78405 C88.97875,41.78405 90.0214,40.99445 90.0214,39.6697 L90.0214,39.64975 C90.0214,38.47655 89.2528,37.9407 87.7555,37.57565 C86.38875,37.25225 86.0657,37.0097 86.0657,36.46335 L86.0657,36.4434 C86.0657,35.9772 86.4906,35.6034 87.2193,35.6034 C87.8661,35.6034 88.5038,35.85645 89.14185,36.3314 L89.8093,35.3906 C89.09075,34.8138 88.2714,34.50055 87.23855,34.50055 C85.83295,34.50055 84.8211,35.33985 84.8211,36.554 L84.8211,36.57395 C84.8211,37.8798 85.67125,38.325 87.178,38.689 C88.494,38.99245 88.77715,39.26545 88.77715,39.7712 L88.77715,39.79115 C88.77715,40.3172 88.2917,40.6812 87.52205,40.6812 C86.6523,40.6812 85.96455,40.34765 85.2873,39.76035 L84.53795,40.65145 C85.3881,41.4092 86.4094,41.78405 87.49265,41.78405 L87.49265,41.78405 Z M78.2355,41.79455 C80.0877,41.79455 81.28085,40.73195 81.28085,38.61795 L81.28085,34.60135 L80.0366,34.60135 L80.0366,38.6778 C80.0366,39.984 79.35935,40.64025 78.2565,40.64025 C77.14385,40.64025 76.4659,39.9434 76.4659,38.6281 L76.4659,34.60135 L75.222,34.60135 L75.222,38.6778 C75.222,40.73195 76.39485,41.79455 78.2355,41.79455 L78.2355,41.79455 Z M67.67565,38.87065 L68.8884,36.0381 L70.1127,38.87065 L67.67565,38.87065 Z M65.21725,41.6829 L66.49195,41.6829 L67.22065,39.9728 L70.5691,39.9728 L71.28695,41.6829 L72.60225,41.6829 L69.48585,34.5506 L68.3326,34.5506 L65.21725,41.6829 Z M55.7487,41.6829 L56.9926,41.6829 L56.9926,38.6988 L60.37185,38.6988 L60.37185,41.6829 L61.6154,41.6829 L61.6154,34.60135 L60.37185,34.60135 L60.37185,37.54555 L56.9926,37.54555 L56.9926,34.60135 L55.7487,34.60135 L55.7487,41.6829 Z M47.04875,41.6829 L48.29335,41.6829 L48.29335,38.7996 L51.8644,38.7996 L51.8644,37.66735 L48.29335,37.66735 L48.29335,35.735 L52.3194,35.735 L52.3194,34.60135 L47.04875,34.60135 L47.04875,41.6829 Z M38.18745,41.6829 L39.4317,41.6829 L39.4317,38.7996 L43.0031,38.7996 L43.0031,37.66735 L39.4317,37.66735 L39.4317,35.735 L43.4581,35.735 L43.4581,34.60135 L38.18745,34.60135 L38.18745,41.6829 Z M29.9936,38.87065 L31.20775,36.0381 L32.43135,38.87065 L29.9936,38.87065 Z M27.5352,41.6829 L28.8099,41.6829 L29.5386,39.9728 L32.8867,39.9728 L33.6049,41.6829 L34.9202,41.6829 L31.8045,34.5506 L30.6509,34.5506 L27.5352,41.6829 Z M18.34,41.6829 L19.58425,41.6829 L19.58425,38.6988 L22.96315,38.6988 L22.96315,41.6829 L24.20775,41.6829 L24.20775,34.60135 L22.96315,34.60135 L22.96315,37.54555 L19.58425,37.54555 L19.58425,34.60135 L18.34,34.60135 L18.34,41.6829 Z M12.0582,41.80435 C13.3833,41.80435 14.19285,41.31855 14.931,40.5496 L14.13195,39.7404 C13.52505,40.30705 12.96855,40.65145 12.0988,40.65145 C10.74325,40.65145 9.76185,39.52795 9.76185,38.1423 L9.76185,38.12235 C9.76185,36.73635 10.7534,35.6244 12.0988,35.6244 C12.908,35.6244 13.5149,35.9772 14.08155,36.50395 L14.8806,35.5831 C14.20265,34.9356 13.4141,34.4806 12.10895,34.4806 C9.96415,34.4806 8.4567,36.12875 8.4567,38.1423 L8.4567,38.16225 C8.4567,40.19645 9.9946,41.80435 12.0582,41.80435 L12.0582,41.80435 Z M2.954,41.78405 C4.4408,41.78405 5.48275,40.99445 5.48275,39.6697 L5.48275,39.64975 C5.48275,38.47655 4.71415,37.9407 3.21685,37.57565 C1.8515,37.25225 1.5274,37.0097 1.5274,36.46335 L1.5274,36.4434 C1.5274,35.9772 1.9523,35.6034 2.68065,35.6034 C3.32815,35.6034 3.9655,35.85645 4.60285,36.3314 L5.2703,35.3906 C4.5521,34.8138 3.7331,34.50055 2.7013,34.50055 C1.295,34.50055 0.28315,35.33985 0.28315,36.554 L0.28315,36.57395 C0.28315,37.8798 1.13295,38.325 2.64005,38.689 C3.95535,38.99245 4.2385,39.26545 4.2385,39.7712 L4.2385,39.79115 C4.2385,40.3172 3.75305,40.6812 2.9841,40.6812 C2.11435,40.6812 1.42625,40.34765 0.74865,39.76035 L0,40.65145 C0.84945,41.4092 1.87145,41.78405 2.954,41.78405 L2.954,41.78405 Z" id="Fill-4" fill="#020302"></path>
                    </g>
                </g>
            </g>
        </g>
    </g>
</svg>